<svg width="966" height="552" viewBox="0 0 966 552" xmlns="http://www.w3.org/2000/svg">
  <!-- Background -->
  <rect width="966" height="552" rx="16" fill="#0f1623"/>
  
  <!-- Grid lines -->
  <line x1="0" y1="138" x2="966" y2="138" stroke="#1e2a3a" stroke-width="1"/>
  <line x1="0" y1="276" x2="966" y2="276" stroke="#1e2a3a" stroke-width="1"/>
  <line x1="0" y1="414" x2="966" y2="414" stroke="#1e2a3a" stroke-width="1"/>
  <line x1="241" y1="0" x2="241" y2="552" stroke="#1e2a3a" stroke-width="1"/>
  <line x1="483" y1="0" x2="483" y2="552" stroke="#1e2a3a" stroke-width="1"/>
  <line x1="724" y1="0" x2="724" y2="552" stroke="#1e2a3a" stroke-width="1"/>

  <!-- Top bar -->
  <rect width="966" height="48" rx="0" fill="#131c2e"/>
  <circle cx="24" cy="24" r="6" fill="#ff5f57"/>
  <circle cx="44" cy="24" r="6" fill="#febc2e"/>
  <circle cx="64" cy="24" r="6" fill="#28c840"/>
  <rect x="100" y="14" width="200" height="20" rx="4" fill="#1e2a3a"/>
  <text x="200" y="28" text-anchor="middle" font-family="sans-serif" font-size="11" fill="#8892aa">DigiUniversal Dashboard</text>
  
  <!-- Live badge -->
  <rect x="820" y="14" width="60" height="20" rx="10" fill="#22c55e"/>
  <text x="850" y="28" text-anchor="middle" font-family="sans-serif" font-size="10" fill="white" font-weight="600">● LIVE</text>

  <!-- Left sidebar -->
  <rect x="0" y="48" width="180" height="504" fill="#0d1520"/>
  <text x="20" y="80" font-family="sans-serif" font-size="11" fill="#8892aa">OVERVIEW</text>
  <rect x="12" y="90" width="156" height="32" rx="6" fill="#1e2a3a"/>
  <text x="36" y="111" font-family="sans-serif" font-size="12" fill="white">📊 Dashboard</text>
  <text x="20" y="148" font-family="sans-serif" font-size="12" fill="#8892aa">📈 Analytics</text>
  <text x="20" y="178" font-family="sans-serif" font-size="12" fill="#8892aa">🎯 Campaigns</text>
  <text x="20" y="208" font-family="sans-serif" font-size="12" fill="#8892aa">🔍 SEO</text>
  <text x="20" y="238" font-family="sans-serif" font-size="12" fill="#8892aa">📱 Social</text>
  <text x="20" y="268" font-family="sans-serif" font-size="12" fill="#8892aa">✉️ Email</text>
  <text x="20" y="298" font-family="sans-serif" font-size="12" fill="#8892aa">💰 Ads</text>
  <text x="20" y="328" font-family="sans-serif" font-size="12" fill="#8892aa">🌐 Web</text>
  <line x1="0" y1="350" x2="180" y2="350" stroke="#1e2a3a" stroke-width="1"/>
  <text x="20" y="375" font-family="sans-serif" font-size="11" fill="#8892aa">CLIENTS</text>
  <text x="20" y="400" font-family="sans-serif" font-size="12" fill="#8892aa">👥 All Clients</text>
  <text x="20" y="428" font-family="sans-serif" font-size="12" fill="#8892aa">📋 Reports</text>
  <text x="20" y="456" font-family="sans-serif" font-size="12" fill="#8892aa">⚙️ Settings</text>

  <!-- Main content area -->
  <!-- Stat cards row -->
  <rect x="196" y="64" width="170" height="80" rx="10" fill="#1a2235"/>
  <text x="212" y="88" font-family="sans-serif" font-size="11" fill="#8892aa">Organic Traffic</text>
  <text x="212" y="116" font-family="sans-serif" font-size="24" font-weight="700" fill="white">+312%</text>
  <text x="212" y="134" font-family="sans-serif" font-size="10" fill="#22c55e">↑ 28% this month</text>

  <rect x="380" y="64" width="170" height="80" rx="10" fill="#1a2235"/>
  <text x="396" y="88" font-family="sans-serif" font-size="11" fill="#8892aa">Total Leads</text>
  <text x="396" y="116" font-family="sans-serif" font-size="24" font-weight="700" fill="white">1,840</text>
  <text x="396" y="134" font-family="sans-serif" font-size="10" fill="#22c55e">↑ 24% growth</text>

  <rect x="564" y="64" width="170" height="80" rx="10" fill="#1a2235"/>
  <text x="580" y="88" font-family="sans-serif" font-size="11" fill="#8892aa">Average ROAS</text>
  <text x="580" y="116" font-family="sans-serif" font-size="24" font-weight="700" fill="white">4.2x</text>
  <text x="580" y="134" font-family="sans-serif" font-size="10" fill="#22c55e">↑ industry best</text>

  <rect x="748" y="64" width="200" height="80" rx="10" fill="#1a2235"/>
  <text x="764" y="88" font-family="sans-serif" font-size="11" fill="#8892aa">Countries Served</text>
  <text x="764" y="116" font-family="sans-serif" font-size="24" font-weight="700" fill="white">30+</text>
  <text x="764" y="134" font-family="sans-serif" font-size="10" fill="#22c55e">↑ worldwide reach</text>

  <!-- Chart area -->
  <rect x="196" y="160" width="480" height="220" rx="10" fill="#1a2235"/>
  <text x="216" y="184" font-family="sans-serif" font-size="13" font-weight="600" fill="white">Revenue Growth</text>
  <text x="600" y="184" font-family="sans-serif" font-size="10" fill="#22c55e">+56% YoY</text>

  <!-- Chart bars -->
  <rect x="230" y="310" width="40" height="40" rx="4" fill="#3b82f6" opacity="0.6"/>
  <rect x="285" y="290" width="40" height="60" rx="4" fill="#3b82f6" opacity="0.7"/>
  <rect x="340" y="265" width="40" height="85" rx="4" fill="#6366f1" opacity="0.8"/>
  <rect x="395" y="245" width="40" height="105" rx="4" fill="#6366f1"/>
  <rect x="450" y="220" width="40" height="130" rx="4" fill="#6366f1"/>
  <rect x="505" y="195" width="40" height="155" rx="4" fill="#22c55e"/>
  <rect x="560" y="175" width="40" height="175" rx="4" fill="#22c55e"/>
  <rect x="615" y="160" width="40" height="190" rx="4" fill="#22c55e"/>

  <!-- Bar labels -->
  <text x="250" y="365" text-anchor="middle" font-family="sans-serif" font-size="9" fill="#8892aa">Nov</text>
  <text x="305" y="365" text-anchor="middle" font-family="sans-serif" font-size="9" fill="#8892aa">Dec</text>
  <text x="360" y="365" text-anchor="middle" font-family="sans-serif" font-size="9" fill="#8892aa">Jan</text>
  <text x="415" y="365" text-anchor="middle" font-family="sans-serif" font-size="9" fill="#8892aa">Feb</text>
  <text x="470" y="365" text-anchor="middle" font-family="sans-serif" font-size="9" fill="#8892aa">Mar</text>
  <text x="525" y="365" text-anchor="middle" font-family="sans-serif" font-size="9" fill="#8892aa">Apr</text>
  <text x="580" y="365" text-anchor="middle" font-family="sans-serif" font-size="9" fill="#8892aa">May</text>
  <text x="635" y="365" text-anchor="middle" font-family="sans-serif" font-size="9" fill="#8892aa">Jun</text>

  <!-- Right panel - Services -->
  <rect x="692" y="160" width="260" height="220" rx="10" fill="#1a2235"/>
  <text x="712" y="184" font-family="sans-serif" font-size="13" font-weight="600" fill="white">Top Services</text>

  <rect x="712" y="196" width="220" height="28" rx="6" fill="#3b82f6" opacity="0.2"/>
  <rect x="712" y="196" width="200" height="28" rx="6" fill="#3b82f6" opacity="0.15"/>
  <text x="712" y="196" font-family="sans-serif" font-size="11" fill="#8892aa"></text>
  <text x="724" y="215" font-family="sans-serif" font-size="12" fill="white">🔍 SEO Optimization</text>
  <text x="896" y="215" text-anchor="end" font-family="sans-serif" font-size="10" fill="#22c55e">94%</text>

  <rect x="712" y="232" width="180" height="28" rx="6" fill="#6366f1" opacity="0.2"/>
  <text x="724" y="251" font-family="sans-serif" font-size="12" fill="white">🎯 Google Ads</text>
  <text x="896" y="251" text-anchor="end" font-family="sans-serif" font-size="10" fill="#22c55e">88%</text>

  <rect x="712" y="268" width="160" height="28" rx="6" fill="#f59e0b" opacity="0.2"/>
  <text x="724" y="287" font-family="sans-serif" font-size="12" fill="white">📱 Social Media</text>
  <text x="896" y="287" text-anchor="end" font-family="sans-serif" font-size="10" fill="#22c55e">82%</text>

  <rect x="712" y="304" width="140" height="28" rx="6" fill="#22c55e" opacity="0.2"/>
  <text x="724" y="323" font-family="sans-serif" font-size="12" fill="white">💻 Web Design</text>
  <text x="896" y="323" text-anchor="end" font-family="sans-serif" font-size="10" fill="#22c55e">78%</text>

  <rect x="712" y="340" width="120" height="28" rx="6" fill="#ec4899" opacity="0.2"/>
  <text x="724" y="359" font-family="sans-serif" font-size="12" fill="white">✍️ Content</text>
  <text x="896" y="359" text-anchor="end" font-family="sans-serif" font-size="10" fill="#22c55e">71%</text>

  <!-- Bottom row -->
  <rect x="196" y="396" width="340" height="100" rx="10" fill="#1a2235"/>
  <text x="216" y="420" font-family="sans-serif" font-size="13" font-weight="600" fill="white">Client Retention</text>
  <text x="216" y="460" font-family="sans-serif" font-size="32" font-weight="700" fill="white">92%</text>
  <text x="216" y="482" font-family="sans-serif" font-size="10" fill="#22c55e">↑ 200+ happy clients worldwide</text>

  <rect x="550" y="396" width="402" height="100" rx="10" fill="#1a2235"/>
  <text x="570" y="420" font-family="sans-serif" font-size="13" font-weight="600" fill="white">Global Reach</text>
  <!-- World dots -->
  <circle cx="620" cy="455" r="3" fill="#3b82f6"/>
  <circle cx="650" cy="445" r="3" fill="#3b82f6"/>
  <circle cx="680" cy="460" r="3" fill="#22c55e"/>
  <circle cx="710" cy="448" r="3" fill="#22c55e"/>
  <circle cx="740" cy="455" r="3" fill="#6366f1"/>
  <circle cx="770" cy="445" r="3" fill="#6366f1"/>
  <circle cx="800" cy="458" r="3" fill="#f59e0b"/>
  <circle cx="830" cy="448" r="3" fill="#f59e0b"/>
  <circle cx="860" cy="455" r="3" fill="#ec4899"/>
  <text x="570" y="482" font-family="sans-serif" font-size="10" fill="#22c55e">↑ Active in 30+ countries</text>
</svg>
