<svg width="100%" viewBox="0 0 680 480" xmlns="http://www.w3.org/2000/svg">
<rect width="680" height="480" rx="20" fill="#141927"/>
<rect x="24" y="20" width="52" height="20" rx="10" fill="#22c55e"/>
<text x="50" y="34" text-anchor="middle" font-family="sans-serif" font-size="10" fill="white" font-weight="600">● LIVE</text>
<text x="88" y="34" font-family="sans-serif" font-size="13" font-weight="600" fill="white">Campaign Performance</text>
<rect x="24" y="52" width="142" height="80" rx="10" fill="#1e2435"/>
<text x="36" y="73" font-family="sans-serif" font-size="11" fill="#8892aa">Organic Traffic</text>
<text x="36" y="100" font-family="sans-serif" font-size="22" font-weight="600" fill="white">+312%</text>
<text x="36" y="118" font-family="sans-serif" font-size="11" fill="#22c55e">↑ vs last month</text>
<rect x="176" y="52" width="142" height="80" rx="10" fill="#1e2435"/>
<text x="188" y="73" font-family="sans-serif" font-size="11" fill="#8892aa">Total Leads</text>
<text x="188" y="100" font-family="sans-serif" font-size="22" font-weight="600" fill="white">1,840</text>
<text x="188" y="118" font-family="sans-serif" font-size="11" fill="#22c55e">↑ 24% growth</text>
<rect x="328" y="52" width="142" height="80" rx="10" fill="#1e2435"/>
<text x="340" y="73" font-family="sans-serif" font-size="11" fill="#8892aa">Avg ROAS</text>
<text x="340" y="100" font-family="sans-serif" font-size="22" font-weight="600" fill="white">4.2x</text>
<text x="340" y="118" font-family="sans-serif" font-size="11" fill="#22c55e">↑ industry best</text>
<rect x="480" y="52" width="176" height="80" rx="10" fill="#1e2435"/>
<text x="492" y="73" font-family="sans-serif" font-size="11" fill="#8892aa">Countries Served</text>
<text x="492" y="100" font-family="sans-serif" font-size="22" font-weight="600" fill="white">30+</text>
<text x="492" y="118" font-family="sans-serif" font-size="11" fill="#22c55e">↑ worldwide</text>
<rect x="24" y="148" width="420" height="200" rx="12" fill="#1e2435"/>
<text x="40" y="172" font-family="sans-serif" font-size="13" font-weight="600" fill="white">Monthly Revenue Growth</text>
<rect x="60" y="270" width="36" height="50" rx="4" fill="#3b82f6" opacity="0.7"/>
<text x="78" y="334" text-anchor="middle" font-family="sans-serif" font-size="10" fill="#8892aa">Jan</text>
<rect x="112" y="255" width="36" height="65" rx="4" fill="#3b82f6" opacity="0.8"/>
<text x="130" y="334" text-anchor="middle" font-family="sans-serif" font-size="10" fill="#8892aa">Feb</text>
<rect x="164" y="240" width="36" height="80" rx="4" fill="#3b82f6" opacity="0.85"/>
<text x="182" y="334" text-anchor="middle" font-family="sans-serif" font-size="10" fill="#8892aa">Mar</text>
<rect x="216" y="220" width="36" height="100" rx="4" fill="#6366f1"/>
<text x="234" y="334" text-anchor="middle" font-family="sans-serif" font-size="10" fill="#8892aa">Apr</text>
<rect x="268" y="200" width="36" height="120" rx="4" fill="#6366f1"/>
<text x="286" y="334" text-anchor="middle" font-family="sans-serif" font-size="10" fill="#8892aa">May</text>
<rect x="320" y="175" width="36" height="145" rx="4" fill="#22c55e"/>
<text x="338" y="334" text-anchor="middle" font-family="sans-serif" font-size="10" fill="#8892aa">Jun</text>
<rect x="460" y="148" width="196" height="200" rx="12" fill="#1e2435"/>
<text x="476" y="172" font-family="sans-serif" font-size="13" font-weight="600" fill="white">Top Services</text>
<rect x="476" y="184" width="160" height="24" rx="4" fill="#3b82f6" opacity="0.25"/>
<text x="556" y="201" text-anchor="middle" font-family="sans-serif" font-size="14" font-weight="600" fill="white">SEO</text>
<rect x="476" y="216" width="148" height="24" rx="4" fill="#6366f1" opacity="0.25"/>
<text x="550" y="233" text-anchor="middle" font-family="sans-serif" font-size="14" font-weight="600" fill="white">Google Ads</text>
<rect x="476" y="248" width="130" height="24" rx="4" fill="#f59e0b" opacity="0.25"/>
<text x="541" y="265" text-anchor="middle" font-family="sans-serif" font-size="14" font-weight="600" fill="white">Social Media</text>
<rect x="476" y="280" width="110" height="24" rx="4" fill="#22c55e" opacity="0.25"/>
<text x="531" y="297" text-anchor="middle" font-family="sans-serif" font-size="14" font-weight="600" fill="white">Web Design</text>
<rect x="476" y="312" width="90" height="24" rx="4" fill="#ec4899" opacity="0.25"/>
<text x="521" y="329" text-anchor="middle" font-family="sans-serif" font-size="14" font-weight="600" fill="white">Content</text>
<rect x="24" y="364" width="300" height="90" rx="12" fill="#1e2435"/>
<text x="40" y="388" font-family="sans-serif" font-size="11" fill="#8892aa">Client Retention Rate</text>
<text x="40" y="420" font-family="sans-serif" font-size="22" font-weight="600" fill="white">92%</text>
<text x="40" y="440" font-family="sans-serif" font-size="11" fill="#22c55e">↑ 200+ happy clients worldwide</text>
<rect x="340" y="364" width="316" height="90" rx="12" fill="#1e2435"/>
<text x="356" y="388" font-family="sans-serif" font-size="11" fill="#8892aa">Experience</text>
<text x="356" y="420" font-family="sans-serif" font-size="22" font-weight="600" fill="white">8+ Years</text>
<text x="356" y="440" font-family="sans-serif" font-size="11" fill="#22c55e">↑ Proven track record since 2016</text>
</svg>