<svg width="78" height="70" viewBox="0 0 78 70" fill="none" xmlns="http://www.w3.org/2000/svg">
<path fill-rule="evenodd" clip-rule="evenodd" d="M34.687 13.075H10.5383C7.9422 13.075 5.56902 14.5423 4.40881 16.8647L0 25.6901V66.6419C0 68.3822 1.41077 69.7929 3.15101 69.7929H59.8691C61.6094 69.7929 63.0201 68.3822 63.0201 66.6419V40.7235C58.7025 42.6455 53.0859 41.1699 50.7633 36.2993L49.6013 33.8619C48.3003 31.133 45.8969 28.8438 42.7482 27.5637L39.1677 26.1083C38.8474 25.9781 38.5406 25.8346 38.2472 25.679H7.04824L9.56505 20.6403C9.95177 19.8661 10.7429 19.377 11.6083 19.377H33.6001C33.2033 17.2423 33.5656 14.9839 34.687 13.075ZM40.9631 38.283H22.057V44.5849H40.9631V38.283Z" fill="#7A5AF8"/>
<path d="M61.3486 33.3501L62.5108 30.9132C64.5822 26.5682 68.3123 23.1091 72.9679 21.2165L76.5479 19.7611C78.484 18.9741 78.484 16.3992 76.5479 15.6122L73.1682 14.2381C68.3929 12.2969 64.5951 8.70946 62.5591 4.21686L61.3657 1.5835C60.5343 -0.251793 57.7612 -0.251793 56.9293 1.5835L55.7359 4.21686C53.7004 8.70946 49.9033 12.2967 45.1281 14.2379L41.7479 15.612C39.8122 16.399 39.8114 18.9741 41.7471 19.7611L45.3276 21.2165C49.9832 23.1091 53.7148 26.5682 55.7862 30.9132L56.948 33.3501C57.7987 35.1341 60.4983 35.1341 61.3486 33.3501Z" fill="#7A5AF8"/>
</svg>
